<?xml version="1.0" encoding="UTF-8" standalone="no"?>
<svg
   xmlns:dc="http://purl.org/dc/elements/1.1/"
   xmlns:cc="http://creativecommons.org/ns#"
   xmlns:rdf="http://www.w3.org/1999/02/22-rdf-syntax-ns#"
   xmlns:svg="http://www.w3.org/2000/svg"
   xmlns="http://www.w3.org/2000/svg"
   xmlns:sodipodi="http://sodipodi.sourceforge.net/DTD/sodipodi-0.dtd"
   xmlns:inkscape="http://www.inkscape.org/namespaces/inkscape"
   inkscape:export-ydpi="93.209999"
   inkscape:export-xdpi="93.209999"
   inkscape:export-filename="/home/zoe/Downloads/KiJLC_128x128.png"
   sodipodi:docname="KiJLC4.svg"
   inkscape:version="1.0 (4035a4fb49, 2020-05-01)"
   version="1.1"
   id="svg3509"
   height="131.83676"
   width="131.83676">
  <defs
     id="defs3511" />
  <sodipodi:namedview
     lock-margins="true"
     inkscape:snap-global="false"
     inkscape:document-rotation="0"
     fit-margin-bottom="0"
     fit-margin-right="0"
     fit-margin-left="0"
     fit-margin-top="0"
     inkscape:snap-to-guides="false"
     inkscape:guide-bbox="true"
     showguides="true"
     inkscape:snap-grids="false"
     inkscape:window-maximized="1"
     inkscape:window-y="0"
     inkscape:window-x="0"
     inkscape:window-height="855"
     inkscape:window-width="1440"
     showgrid="true"
     inkscape:current-layer="layer1"
     inkscape:document-units="px"
     inkscape:cy="65.889833"
     inkscape:cx="92.268183"
     inkscape:zoom="2.8284271"
     inkscape:pageshadow="2"
     inkscape:pageopacity="0.0"
     borderopacity="1.0"
     bordercolor="#666666"
     pagecolor="#ffffff"
     id="base" />
  <metadata
     id="metadata3514">
    <rdf:RDF>
      <cc:Work
         rdf:about="">
        <dc:format>image/svg+xml</dc:format>
        <dc:type
           rdf:resource="http://purl.org/dc/dcmitype/StillImage" />
        <dc:title></dc:title>
      </cc:Work>
    </rdf:RDF>
  </metadata>
  <g
     transform="translate(-42.956253,-887.25929)"
     id="layer1"
     inkscape:groupmode="layer"
     inkscape:label="Layer 1">
    <path
       id="rect3438-4-1-6-9-8-4"
       d="M 51.678648,901.97614 H 166.07062 c 0.51273,0 0.9255,0.43179 0.9255,0.96814 v 109.79552 c 0,0.5364 -0.41277,0.9682 -0.9255,0.9682 H 51.678648 c -0.512727,0 -0.925501,-0.4318 -0.925501,-0.9682 V 902.94428 c 0,-0.53635 0.412774,-0.96814 0.925501,-0.96814 z"
       style="fill:#314cb0;fill-opacity:1;fill-rule:nonzero;stroke:#1d2d68;stroke-width:4.85049;stroke-miterlimit:4;stroke-opacity:1"
       inkscape:connector-curvature="0" />
    <path
       id="rect4352-5-1"
       d="m 135.29004,906.65179 h 28.31517 v 27.03082 h -28.31517 z"
       style="fill:#314cb0;fill-opacity:1;fill-rule:nonzero;stroke:none"
       inkscape:connector-curvature="0" />
    <path
       id="path3552-6-3-7"
       d="m 161.16831,902.00507 c 0,6.60244 -5.36817,11.95472 -11.99015,11.95472 -6.62197,0 -11.99015,-5.35228 -11.99015,-11.95472 0,-6.60244 5.36818,-11.9548 11.99015,-11.9548 6.62198,0 11.99015,5.35236 11.99015,11.9548 z"
       style="fill:#ff7700;fill-opacity:1;fill-rule:nonzero;stroke:none"
       inkscape:connector-curvature="0" />
    <g
       style="fill:#ffffff"
       transform="matrix(0.20973955,0,0,0.20973955,536.99757,661.39229)"
       id="g1230">
      <path
         id="path1211"
         style="fill:#ffffff;fill-opacity:1"
         d="m -2128.416,464.40039 c -10.8669,0.0288 -23.34,1.21967 -31.461,3.31836 -18.6073,4.8085 -38.2769,16.56853 -49.164,29.39453 -30.6429,36.1001 -29.0169,81.73789 3.4961,98.15039 7.7644,3.9195 21.4413,7.854 31.1679,8.9668 37.6788,4.311 73.7307,-5.84558 92.5665,-26.08008 l 4.9335,-5.30273 -8.6914,-0.28711 c -8.6617,-0.2871 -8.7079,-0.27556 -13.5,3.40234 -6.4468,4.9479 -17.0629,9.89047 -26.8086,12.48047 -11.4152,3.0338 -37.4733,3.79779 -49.8808,1.46289 -13.0077,-2.4479 -20.7963,-5.90264 -27.6817,-12.27734 -15.735,-14.5678 -16.5021,-37.88099 -2.0468,-62.21289 15.1844,-25.5591 43.7177,-39.50702 77.1093,-37.69532 16.3233,0.8857 26.9587,4.80507 34.7032,12.79297 13.9573,14.3958 11.4187,36.6641 -6.1992,54.375 -10.1208,10.1743 -23.391,16.52323 -25.1192,12.01953 -0.3038,-0.7916 4.7278,-13.5041 11.1797,-28.25 6.4519,-14.7458 12.3442,-28.27304 13.0957,-30.06054 l 1.3672,-3.25 h -10.8613 -10.8614 l -1.8222,4.03906 -1.8203,4.03711 -3.5801,-3.41992 c -4.9148,-4.6952 -9.5809,-5.97136 -20.0098,-5.47266 -7.4,0.3538 -9.7988,0.94235 -16.1328,3.96875 -12.5261,5.9851 -22.5251,15.80916 -29.3613,28.84766 -14.081,26.856 -3.713,47.49164 23,45.77734 6.0755,-0.3899 8.9043,-1.16933 14.33,-3.95312 l 6.7598,-3.46876 1.625,2.83204 c 2.351,4.0964 5.8809,5.08239 16.207,4.52539 15.9427,-0.8599 30.6883,-7.94908 43.5274,-20.92578 12.4158,-12.5488 18.409,-26.37441 18.332,-42.28711 -0.112,-23.3 -14.2956,-38.2716 -41.8594,-44.1875 -4.0773,-0.8751 -10.0189,-1.27705 -16.539,-1.25977 z m -17.1113,42.9707 c 4.8039,-0.0198 5.7113,0.33817 8.8828,3.50977 3.5114,3.5113 3.5292,3.57313 3.0254,10.61523 -0.4121,5.7594 -1.3065,8.65882 -4.7813,15.51172 -4.8326,9.531 -11.4589,17.1018 -17.7226,20.2461 -8.5673,4.3006 -17.0821,3.33883 -20.8106,-2.35157 -4.6617,-7.1147 2.2847,-28.37645 12.6602,-38.75195 6.1054,-6.1054 11.7542,-8.7503 18.7461,-8.7793 z"
         transform="translate(40.57684,885.75483)" />
      <path
         style="fill:#ffffff;fill-opacity:1"
         d="m -1940.7231,1314.4787 c -16.424,-24.3611 -45.1743,-40.9255 -81.6065,-47.0175 -14.7033,-2.4585 -49.4785,-2.4528 -67.4701,0.011 -27.6161,3.7821 -58.2207,11.2342 -86.114,20.9685 -8.4623,2.9532 -16.286,5.6664 -17.386,6.0294 -1.1,0.363 6.3906,-3.5222 16.6458,-8.6336 76.1353,-37.9481 148.6849,-54.1218 209.2239,-46.643 54.2749,6.705 102.8161,33.7871 131.7883,73.5274 2.6631,3.6529 4.842,7.0332 4.842,7.5119 0,0.483 -23.4697,0.8561 -52.75,0.8385 l -52.75,-0.032 -4.4234,-6.5612 z"
         id="path1221" />
      <path
         style="fill:#ffffff;fill-opacity:1"
         d="m -2019.6377,1467.7985 c -0.7971,-0.9605 2.3717,-18.77 12.0103,-67.5 l 13.0931,-66.1953 h 15.7449 c 12.7832,0 15.9792,0.2825 16.9911,1.5017 1.0142,1.222 -0.6432,11.0452 -8.8999,52.75 -5.5804,28.1866 -10.1361,51.8108 -10.1238,52.4983 0.017,0.9696 6.2764,1.25 27.8999,1.25 24.1355,0 28.0527,0.2112 29.183,1.5731 1.0833,1.3052 0.9143,3.6036 -0.9924,13.5 l -2.298,11.9269 h -45.7627 c -36.4142,0 -45.9838,-0.2665 -46.8455,-1.3047 z"
         id="path1219" />
      <path
         style="fill:#ffffff;fill-opacity:1"
         d="m -1861.2997,1470.6057 c -12.7447,-2.3978 -21.3036,-6.3687 -28.7648,-13.3453 -12.8609,-12.0256 -17.9671,-27.6254 -15.5992,-47.6572 5.3478,-45.2408 40.57,-77.5128 84.864,-77.7558 9.9579,-0.055 12.5497,0.2961 19.3278,2.6154 8.747,2.993 16.5196,7.6508 21.4781,12.8707 l 3.3059,3.4802 -8.8059,7.8523 c -4.8433,4.3187 -9.8046,8.7243 -11.0253,9.7902 -2.2166,1.9357 -2.2247,1.9337 -6.5,-1.5598 -7.9528,-6.4987 -10.2709,-7.2932 -21.2806,-7.2932 -9.1528,0 -10.5659,0.2681 -16.6796,3.1645 -12.5246,5.9336 -21.7326,17.0018 -26.3778,31.7065 -4.8565,15.3735 -4.2559,30.0387 1.5916,38.8669 8.7093,13.1487 30.8501,14.3924 48.8707,2.7452 3.4771,-2.2474 7.0526,-3.9454 7.9456,-3.7734 0.8931,0.172 4.7008,4.3417 8.4617,9.266 l 6.8379,8.9533 -3.3251,2.821 c -5.8005,4.9213 -17.9756,11.6365 -25.781,14.2196 -13.4859,4.4631 -25.7946,5.4316 -38.544,3.0329 z"
         id="path1217" />
      <path
         style="fill:#ffffff;fill-opacity:1"
         d="m -2269.0363,1471.1379 c -14.7178,-2.6879 -24.9028,-9.5164 -30.9546,-20.7531 -1.4824,-2.7525 -1.9308,-4.5554 -1.2903,-5.1881 0.5398,-0.5332 6.1247,-3.9552 12.4108,-7.6043 12.6079,-7.319 13.3664,-7.3854 17.2936,-1.513 3.7509,5.6089 8.1861,8.0273 14.675,8.0018 10.5256,-0.041 16.3896,-4.5015 20.0483,-15.249 0.9791,-2.876 5.7727,-25.3665 10.6527,-49.979 l 8.8726,-44.75 h 16.2452 c 16.0696,0 16.2513,0.025 16.8166,2.2768 0.3143,1.2523 -3.6471,23.464 -8.8031,49.3594 -8.2749,41.5597 -9.8053,47.9894 -13.0463,54.814 -6.7271,14.1655 -19.6898,25.0339 -34.6915,29.0868 -6.8369,1.847 -21.9312,2.6479 -28.229,1.4977 z"
         id="path1215" />
      <path
         style="fill:#ffffff;fill-opacity:1"
         d="m -2137.9227,1631.0735 c -38.8879,-3.2551 -75.2824,-13.5188 -101.2739,-28.5604 -37.0173,-21.4225 -59.8037,-52.9293 -67.6856,-93.5891 -3.2008,-16.5119 -2.6766,-17.5181 3.1076,-5.9641 17.2927,34.5428 49.9003,59.9396 90.4749,70.4673 20.7033,5.3718 40.8048,7.0297 68.5058,5.6501 86.6732,-4.3166 158.4479,-38.1574 194.957,-91.9194 l 4.1117,-6.0547 h 52.9457 52.9457 l -4.5571,7.75 c -12.1225,20.6156 -38.2158,49.6726 -60.4088,67.2702 -41.719,33.0803 -92.0267,55.7945 -149.4396,67.4726 -32.7625,6.6641 -62.092,9.2848 -83.6834,7.4775 z"
         id="path966" />
    </g>
  </g>
</svg>
